{"title":"Naruto Shippuden Season 3 English Dubbed","uid":8076785,"size":1476903025,"categoryP":"video","categoryS":"tv_shows","magnet":"?xt=urn:btih:64296dac7ad8a4d3ccc92a56be6ef33d69eb1457&amp;dn=Naruto+Shippuden+Season+3+English+Dubbed&amp;tr=udp%3A%2F%2Ftracker.openbittorrent.com%3A80&amp;tr=udp%3A%2F%2Fopen.demonii.com%3A1337&amp;tr=udp%3A%2F%2Ftracker.coppersurfer.tk%3A6969&amp;tr=udp%3A%2F%2Fexodus.desync.com%3A6969","seeders":1,"leechers":1,"uploader":"sidd32kul","files":19,"time":1359395618,"description":"Naruto Shippuden Season 3 English Dubbed\n\nGeneral\nFormat                         : MPEG-4\nFormat profile                 : Base Media\nCodec ID                       : isom\nDuration                       : ~20mn 35s\nOverall bit rate mode          : Variable\nOverall bit rate               : ~484 Kbps\nTagged date                    : UTC 2011-01-20 12:03:03\nWriting application            : Lavf52.33.0\n\nVideo\nID                             : 1\nFormat                         : AVC\nFormat/Info                    : Advanced Video Codec\nFormat profile                 : &lt;a class=&quot;__cf_email__&quot; href=&quot;/cdn-cgi/l/email-protection&quot; data-cfemail=&quot;327f535b5c727e011c02&quot;&gt;[email&amp;#160;protected]&lt;/a&gt;&lt;script cf-hash='f9e31' type=&quot;text/javascript&quot;&gt;\n/* &lt;![CDATA[ */!function(){try{var t=&quot;currentScript&quot;in document?document.currentScript:function(){for(var t=document.getElementsByTagName(&quot;script&quot;),e=t.length;e--;)if(t[e].getAttribute(&quot;cf-hash&quot;))return t[e]}();if(t&amp;&amp;t.previousSibling){var e,r,n,i,c=t.previousSibling,a=c.getAttribute(&quot;data-cfemail&quot;);if(a){for(e=&quot;&quot;,r=parseInt(a.substr(0,2),16),n=2;a.length-n;n+=2)i=parseInt(a.substr(n,2),16)^r,e+=String.fromCharCode(i);e=document.createTextNode(e),c.parentNode.replaceChild(e,c)}}}catch(u){}}();/* ]]&gt; */&lt;/script&gt;\nFormat settings, CABAC         : Yes\nFormat settings, ReFrames      : 3 frames\nCodec ID                       : avc1\nCodec ID/Info                  : Advanced Video Coding\nBit rate                       : 352 Kbps\nWidth                          : ~480 pixels\nHeight                         : ~272 pixels\nDisplay aspect ratio           : 16:9\nOriginal display aspect ratio  : 16:9\nFrame rate mode                : Constant\nFrame rate                     : 23.976 fps\nColor space                    : YUV\nChroma subsampling             : 4:2:0\nBit depth                      : 8 bits\nScan type                      : Progressive\nBits/(Pixel*Frame)             : 0.112\nStream size                    : 51.8 MiB (73%)\n\nAudio\nID                             : 2\nFormat                         : AAC\nFormat/Info                    : Advanced Audio Codec\nFormat profile                 : LC\nCodec ID                       : 40\nDuration                       : ~20mn 35s\nBit rate mode                  : Variable\nBit rate                       : 128 Kbps\nChannel(s)                     : 2 channels\nChannel positions              : Front: L R\nSampling rate                  : ~48.0 KHz\nCompression mode               : Lossy\nStream size                    : 18.9 MiB (26%)\n\n","torrent":{"xt":"urn:btih:64296dac7ad8a4d3ccc92a56be6ef33d69eb1457","amp;dn":"Naruto+Shippuden+Season+3+English+Dubbed","amp;tr":["udp%3A%2F%2Ftracker.openbittorrent.com%3A80","udp%3A%2F%2Fopen.demonii.com%3A1337","udp%3A%2F%2Ftracker.coppersurfer.tk%3A6969","udp%3A%2F%2Fexodus.desync.com%3A6969"],"infoHash":"64296dac7ad8a4d3ccc92a56be6ef33d69eb1457","infoHashBuffer":{"type":"Buffer","data":[100,41,109,172,122,216,164,211,204,201,42,86,190,110,243,61,105,235,20,87]},"announce":[],"urlList":[]}}